<svg width="40" height="17" viewBox="0 0 40 17" fill="none" xmlns="http://www.w3.org/2000/svg">
<path d="M7.98864 21H0.769886V0.636363H8.0483C10.0966 0.636363 11.8598 1.04403 13.3381 1.85938C14.8163 2.66809 15.9531 3.83144 16.7486 5.34943C17.5507 6.86742 17.9517 8.68371 17.9517 10.7983C17.9517 12.9195 17.5507 14.7424 16.7486 16.267C15.9531 17.7917 14.8097 18.9616 13.3182 19.777C11.8333 20.5923 10.0568 21 7.98864 21ZM5.07528 17.3111H7.80966C9.08239 17.3111 10.1529 17.0857 11.0213 16.6349C11.8963 16.1776 12.5526 15.4716 12.9901 14.517C13.4342 13.5559 13.6562 12.3163 13.6562 10.7983C13.6562 9.29356 13.4342 8.06392 12.9901 7.10938C12.5526 6.15483 11.8996 5.45218 11.0312 5.00142C10.1629 4.55066 9.09233 4.32528 7.8196 4.32528H5.07528V17.3111Z" fill="#25A18E"/>
<path d="M20.6654 4.18608V0.636363H37.3898V4.18608H31.1555V21H26.8998V4.18608H20.6654ZM41.8834 21.2585C41.2271 21.2585 40.6637 21.0265 40.193 20.5625C39.729 20.0919 39.497 19.5284 39.497 18.8722C39.497 18.2225 39.729 17.6657 40.193 17.2017C40.6637 16.7377 41.2271 16.5057 41.8834 16.5057C42.5197 16.5057 43.0766 16.7377 43.5538 17.2017C44.0311 17.6657 44.2697 18.2225 44.2697 18.8722C44.2697 19.3097 44.1571 19.7107 43.9317 20.0753C43.7129 20.4332 43.4246 20.7216 43.0666 20.9403C42.7087 21.1525 42.3143 21.2585 41.8834 21.2585Z" fill="#152C5B"/>
</svg>
